<svg width="67" height="63" viewBox="0 0 67 63" fill="none" xmlns="http://www.w3.org/2000/svg">
<path opacity="0.4" d="M33.275 8.77658V62.1163C32.7093 62.1163 32.1104 62.0164 31.6445 61.7502L31.5114 61.6837C25.1226 58.1898 13.9755 54.5296 6.75483 53.5646L5.78985 53.4315C2.59545 53.0322 0 50.0375 0 46.8431V6.64698C0 2.68726 3.22767 -0.30749 7.1874 0.0252597C14.1751 0.590935 24.7566 4.11809 30.6796 7.81161L31.5114 8.31073C32.0106 8.61021 32.6428 8.77658 33.275 8.77658Z" fill="white"/>
<path d="M66.55 6.68044V46.8433C66.55 50.0377 63.9546 53.0324 60.7602 53.4317L59.6621 53.5648C52.4082 54.5298 41.2278 58.2233 34.839 61.7505C34.4064 62.0167 33.874 62.1165 33.275 62.1165V8.77676C33.9072 8.77676 34.5395 8.61038 35.0386 8.31091L35.6043 7.94489C41.5272 4.21809 52.142 0.657661 59.1297 0.0587108H59.3293C63.2891 -0.274039 66.55 2.68744 66.55 6.68044Z" fill="white"/>
<path d="M19.1333 21.8871H11.6464C10.2821 21.8871 9.15076 20.7558 9.15076 19.3915C9.15076 18.0272 10.2821 16.8959 11.6464 16.8959H19.1333C20.4975 16.8959 21.6289 18.0272 21.6289 19.3915C21.6289 20.7558 20.4975 21.8871 19.1333 21.8871Z" fill="white"/>
<path d="M21.6289 31.8697H11.6464C10.2821 31.8697 9.15076 30.7383 9.15076 29.374C9.15076 28.0098 10.2821 26.8784 11.6464 26.8784H21.6289C22.9932 26.8784 24.1245 28.0098 24.1245 29.374C24.1245 30.7383 22.9932 31.8697 21.6289 31.8697Z" fill="white"/>
</svg>
