<svg width="67" height="67" viewBox="0 0 67 67" fill="none" xmlns="http://www.w3.org/2000/svg">
<path d="M60.0042 16.0158L40.856 2.61872C35.6368 -1.03806 27.6252 -0.838596 22.6055 3.05088L5.95057 16.049C2.62623 18.642 0 23.961 0 28.1495V51.0874C0 59.5645 6.88138 66.4791 15.3584 66.4791H51.1947C59.6718 66.4791 66.5532 59.5977 66.5532 51.1207V28.5816C66.5532 24.0939 63.661 18.5755 60.0042 16.0158ZM35.7698 53.1818C35.7698 54.5447 34.6395 55.675 33.2765 55.675C31.9136 55.675 30.7833 54.5447 30.7833 53.1818V43.2087C30.7833 41.8458 31.9136 40.7155 33.2765 40.7155C34.6395 40.7155 35.7698 41.8458 35.7698 43.2087V53.1818Z" fill="white"/>
</svg>
