<?xml version="1.0" standalone="no"?>
<!DOCTYPE svg PUBLIC "-//W3C//DTD SVG 20010904//EN"
 "http://www.w3.org/TR/2001/REC-SVG-20010904/DTD/svg10.dtd">
<svg version="1.0" xmlns="http://www.w3.org/2000/svg"
 width="500.000000pt" height="500.000000pt" viewBox="0 0 500.000000 500.000000"
 preserveAspectRatio="xMidYMid meet">

<g transform="translate(0.000000,500.000000) scale(0.100000,-0.100000)"
fill="#000000" stroke="none">
<path d="M3545 3411 c-11 -5 -33 -22 -48 -39 -27 -28 -32 -29 -91 -25 -56 5
-64 3 -94 -22 -18 -15 -32 -32 -32 -38 0 -7 -9 -18 -20 -25 -25 -15 -26 -37
-2 -54 33 -24 32 -44 -4 -79 l-34 -33 0 37 0 37 -424 0 -425 0 -3 -105 c-3
-107 4 -135 17 -68 22 121 89 160 247 148 l88 -7 0 -428 c0 -273 -4 -439 -10
-456 -14 -35 -38 -53 -72 -54 -15 0 -29 -4 -32 -9 -3 -5 79 -9 189 -9 110 0
192 4 189 9 -3 5 -19 9 -35 9 -18 0 -39 9 -54 25 l-25 24 0 444 0 444 46 7
c93 12 164 7 204 -15 42 -24 75 -74 85 -132 5 -25 12 -37 20 -33 7 2 21 -5 32
-16 14 -15 18 -36 18 -90 0 -67 1 -71 34 -100 32 -29 38 -30 97 -25 61 4 63 4
98 -32 l36 -37 0 -210 c0 -233 -5 -254 -60 -254 -16 0 -32 -4 -35 -10 -4 -7
50 -10 155 -10 105 0 159 3 155 10 -3 6 -16 10 -29 10 -13 0 -30 8 -39 18 -15
16 -17 49 -17 252 0 277 -2 270 93 263 53 -4 66 -2 89 16 35 28 53 85 40 131
-8 32 -6 38 30 77 53 60 53 107 0 166 -35 37 -38 45 -30 72 4 17 5 48 1 70 -4
22 -5 47 -4 54 5 29 -24 37 -105 30 l-79 -7 -36 34 c-37 37 -88 51 -124 35z
m84 -15 c15 -8 35 -26 44 -39 15 -23 14 -24 -37 -49 l-52 -26 -51 27 c-45 22
-50 29 -41 44 12 23 67 57 91 57 10 0 31 -7 46 -14z m-193 -62 l22 -6 -21 -58
c-21 -57 -24 -60 -77 -79 -59 -22 -79 -16 -58 18 10 17 10 25 0 42 -35 55 48
106 134 83z m386 -16 c2 -17 11 -24 31 -26 26 -3 27 -6 27 -57 0 -30 -4 -56
-8 -59 -5 -3 -33 4 -63 15 -51 19 -56 24 -74 72 -11 29 -21 55 -23 59 -4 8 24
15 70 17 31 1 37 -3 40 -21z m-294 -22 l44 -22 -34 -26 c-18 -13 -50 -28 -71
-31 -42 -7 -42 -5 -11 71 15 38 16 38 72 8z m191 -25 c11 -27 21 -52 21 -55 0
-6 -56 2 -80 11 -8 4 -40 5 -70 4 -51 -2 -54 -1 -36 14 23 17 42 19 51 5 3 -5
11 -10 17 -10 6 0 3 8 -6 19 -16 18 -15 19 26 40 24 11 46 21 49 21 4 0 16
-22 28 -49z m-244 -76 c-11 -9 -28 -25 -37 -36 l-18 -21 0 26 c0 26 24 44 60
45 11 0 10 -4 -5 -14z m236 -34 l49 -48 0 -71 0 -71 -48 -49 c-39 -40 -56 -50
-92 -55 -73 -11 -119 6 -167 58 -42 46 -43 49 -43 116 0 69 0 70 46 119 l47
50 80 0 80 0 48 -49z m31 25 c4 -6 8 -20 8 -30 0 -17 -4 -16 -30 9 -16 16 -30
33 -30 38 0 11 43 -2 52 -17z m-337 -33 c-7 -37 -39 -93 -54 -93 -9 0 -41 66
-41 84 0 8 17 21 38 29 59 25 65 23 57 -20z m415 21 c46 -18 49 -34 20 -82
-17 -27 -24 -31 -34 -22 -32 26 -60 120 -36 120 5 0 28 -7 50 -16z m-502 -83
l23 -49 -23 -49 c-12 -26 -24 -50 -25 -52 -1 -2 -14 4 -27 13 -35 22 -53 85
-36 126 11 27 45 61 60 60 3 -1 15 -23 28 -49z m597 25 c28 -28 40 -66 31 -99
-5 -23 -52 -77 -65 -77 -3 1 -16 23 -29 50 l-24 50 24 50 c13 27 27 49 31 50
4 0 19 -11 32 -24z m-517 -103 l-3 -27 -18 27 c-17 26 -17 28 0 54 l18 27 3
-27 c2 -15 2 -39 0 -54z m426 3 c20 -33 36 -67 36 -77 0 -10 -15 -23 -40 -33
-59 -23 -64 -22 -55 22 4 20 6 66 5 102 -2 74 2 73 54 -14z m-446 -24 c11 -15
23 -44 27 -65 8 -44 1 -46 -63 -17 l-42 19 22 46 c12 25 25 45 29 45 4 0 17
-13 27 -28z m100 -117 c-3 -3 -17 -1 -32 4 -19 8 -26 17 -26 38 l0 28 32 -32
c18 -18 29 -35 26 -38z m272 48 c0 -28 -13 -41 -45 -49 l-30 -7 34 37 c40 41
41 42 41 19z m-390 -32 c52 -18 56 -22 70 -68 8 -26 19 -51 24 -55 15 -10 3
-18 -37 -25 -85 -13 -127 23 -127 109 0 32 4 58 8 58 4 0 32 -9 62 -19z m518
-31 c7 -94 -50 -139 -146 -114 l-22 6 25 24 c20 18 24 28 17 41 -16 30 2 54
54 73 27 10 54 17 59 16 6 -1 11 -22 13 -46z m-368 -7 c8 -3 42 -5 75 -5 33 0
67 2 75 5 62 22 106 11 58 -14 -32 -17 -38 -30 -26 -52 11 -21 5 -33 -11 -22
-6 3 -11 19 -11 34 0 23 -5 30 -27 34 -15 3 -35 0 -45 -6 -13 -9 -21 -8 -30 1
-17 17 -33 15 -18 -3 17 -20 14 -22 -43 -30 -47 -7 -47 -7 -62 29 -8 19 -15
38 -15 40 0 6 55 -2 80 -11z m20 -114 c6 -11 10 -28 8 -37 -3 -14 -8 -12 -31
12 -21 22 -24 32 -15 38 20 12 26 10 38 -13z m160 7 c0 -3 -4 -8 -10 -11 -5
-3 -10 -1 -10 4 0 6 5 11 10 11 6 0 10 -2 10 -4z"/>
<path d="M3525 3115 c-67 -66 20 -171 104 -125 31 16 46 65 31 100 -23 56 -92
69 -135 25z"/>
<path d="M3790 3015 c-7 -9 -11 -18 -8 -20 3 -3 11 1 18 10 7 9 11 18 8 20 -3
3 -11 -1 -18 -10z"/>
<path d="M600 3175 c-185 -42 -330 -179 -384 -364 -36 -121 -12 -313 50 -418
46 -76 67 -98 139 -145 164 -107 423 -112 572 -11 22 15 39 21 41 14 2 -6 12
-21 22 -33 19 -23 19 -21 20 140 0 157 -11 206 -23 103 -12 -103 -80 -195
-177 -240 -73 -34 -212 -37 -275 -6 -128 63 -203 212 -212 420 -8 190 31 314
134 425 73 80 131 104 235 98 147 -9 250 -92 279 -227 21 -98 29 -79 29 72 0
91 -4 147 -10 147 -5 0 -10 -4 -10 -8 0 -5 -6 -16 -13 -26 -12 -17 -15 -17
-48 3 -100 59 -253 82 -369 56z"/>
<path d="M1335 3160 c3 -5 20 -10 36 -10 18 0 39 -9 54 -25 l25 -24 0 -430 0
-430 -26 -20 c-15 -12 -39 -21 -55 -21 -15 0 -31 -5 -34 -11 -5 -7 80 -9 286
-7 276 3 297 5 349 26 127 50 187 178 149 317 -17 61 -101 139 -175 160 -93
27 -92 27 -58 36 57 16 128 71 152 119 33 63 27 162 -12 219 -32 45 -100 84
-174 100 -68 14 -526 15 -517 1z m476 -43 c62 -33 91 -89 93 -176 2 -117 -46
-197 -132 -221 -20 -5 -67 -10 -104 -10 l-68 0 0 196 c0 115 4 203 10 215 16
30 141 27 201 -4z m2 -449 c55 -17 122 -82 136 -133 16 -58 14 -169 -4 -213
-19 -44 -50 -78 -90 -100 -41 -22 -165 -21 -199 1 -47 31 -51 50 -54 260 l-4
197 87 0 c48 0 106 -6 128 -12z"/>
<path d="M4304 2829 c-111 -14 -212 -87 -261 -187 -38 -78 -44 -203 -14 -283
28 -74 80 -132 148 -165 47 -23 69 -28 137 -28 89 0 144 18 204 68 50 43 38
50 -18 12 -116 -80 -250 -53 -312 61 -77 140 -45 391 59 470 26 20 50 28 93
31 80 6 100 -7 100 -64 0 -37 4 -46 24 -56 31 -14 53 -5 68 27 33 74 -85 133
-228 114z"/>
</g>
</svg>
